<mxfile host="app.diagrams.net" modified="2023-12-08T13:20:05.188Z" agent="Mozilla/5.0 (Windows NT 10.0; Win64; x64) AppleWebKit/537.36 (KHTML, like Gecko) Chrome/118.0.0.0 Safari/537.36 OPR/104.0.0.0 (Edition Yx GX)" version="21.8.1" etag="_Vj4OelnuJKzDbkF73UQ" type="github">
  <diagram name="Страница — 1" id="c8BIlOREYEmRnEhv_TvF">
    <mxGraphModel>
      <root>
        <mxCell id="0" />
        <mxCell id="1" parent="0" />
      </root>
    </mxGraphModel>
  </diagram>
</mxfile>
